<svg width="20" height="20" viewBox="0 0 20 20" fill="none" xmlns="http://www.w3.org/2000/svg">
<path d="M0 9.99842C0.000563232 12.3797 0.850471 14.6828 2.39696 16.4936C3.94345 18.3044 6.08511 19.5042 8.437 19.8774V12.8884H5.9V9.99842H8.44V7.79842C8.38391 7.28351 8.44189 6.76256 8.60982 6.27258C8.77775 5.78261 9.0515 5.33561 9.41164 4.96335C9.77178 4.59109 10.2095 4.30269 10.6936 4.11864C11.1778 3.93459 11.6965 3.8594 12.213 3.89842C12.963 3.91042 13.713 3.97742 14.453 4.09842V6.55742H13.189C12.9742 6.52928 12.7558 6.54978 12.5499 6.6174C12.3441 6.68502 12.1561 6.79803 11.9998 6.94809C11.8435 7.09814 11.7229 7.2814 11.647 7.48431C11.571 7.68723 11.5416 7.90462 11.561 8.12042V9.99842H14.332L13.889 12.8894H11.561V19.8774C13.4486 19.5791 15.2112 18.7462 16.6402 17.4772C18.0691 16.2082 19.1045 14.5564 19.6238 12.7172C20.143 10.8781 20.1244 8.92866 19.5702 7.09975C19.0159 5.27084 17.9492 3.63905 16.4964 2.39756C15.0435 1.15607 13.2653 0.356888 11.3724 0.0946227C9.4794 -0.167643 7.55092 0.117996 5.81525 0.917722C4.07958 1.71745 2.60942 2.99777 1.5788 4.6071C0.548194 6.21643 0.00030337 8.08737 0 9.99842Z" fill="#0072B1"/>
</svg>
