<svg width="19" height="19" viewBox="0 0 19 19" fill="none" xmlns="http://www.w3.org/2000/svg">
<path d="M18.6979 5.54583C18.6874 4.7569 18.5397 3.97581 18.2615 3.2375C18.0202 2.61474 17.6516 2.04917 17.1793 1.57691C16.7071 1.10465 16.1415 0.736095 15.5188 0.494792C14.7899 0.221205 14.02 0.0732722 13.2417 0.0572917C12.2396 0.0125001 11.9219 0 9.37813 0C6.83437 0 6.50833 6.98492e-08 5.51354 0.0572917C4.73558 0.0733897 3.96599 0.221321 3.2375 0.494792C2.61464 0.735926 2.04898 1.10442 1.5767 1.5767C1.10442 2.04898 0.735926 2.61464 0.494792 3.2375C0.220657 3.96576 0.073045 4.73553 0.0583333 5.51354C0.0135417 6.51667 0 6.83437 0 9.37813C0 11.9219 -7.76102e-09 12.2469 0.0583333 13.2427C0.0739583 14.0219 0.220833 14.7906 0.494792 15.5208C0.736331 16.1435 1.1051 16.7089 1.57754 17.181C2.04997 17.6531 2.61569 18.0214 3.23854 18.2625C3.96503 18.5471 4.73476 18.7056 5.51458 18.7312C6.51771 18.776 6.83542 18.7896 9.37917 18.7896C11.9229 18.7896 12.249 18.7896 13.2438 18.7312C14.022 18.7159 14.792 18.5683 15.5208 18.2948C16.1434 18.0532 16.7089 17.6846 17.1811 17.2123C17.6533 16.7401 18.022 16.1747 18.2635 15.5521C18.5375 14.8229 18.6844 14.0542 18.7 13.274C18.7448 12.2719 18.7583 11.9542 18.7583 9.40937C18.7562 6.86562 18.7563 6.54271 18.6979 5.54583ZM9.37188 14.1885C6.71146 14.1885 4.55625 12.0333 4.55625 9.37292C4.55625 6.7125 6.71146 4.55729 9.37188 4.55729C10.6491 4.55729 11.8739 5.06465 12.777 5.96776C13.6801 6.87086 14.1875 8.09573 14.1875 9.37292C14.1875 10.6501 13.6801 11.875 12.777 12.7781C11.8739 13.6812 10.6491 14.1885 9.37188 14.1885ZM14.3792 5.50208C14.2317 5.50222 14.0856 5.47327 13.9493 5.41689C13.813 5.3605 13.6891 5.27779 13.5848 5.17349C13.4805 5.06919 13.3978 4.94535 13.3414 4.80905C13.2851 4.67275 13.2561 4.52667 13.2562 4.37917C13.2562 4.23177 13.2853 4.08582 13.3417 3.94964C13.3981 3.81347 13.4808 3.68974 13.585 3.58551C13.6892 3.48129 13.8129 3.39861 13.9491 3.34221C14.0853 3.2858 14.2313 3.25677 14.3786 3.25677C14.526 3.25677 14.672 3.2858 14.8082 3.34221C14.9443 3.39861 15.0681 3.48129 15.1723 3.58551C15.2765 3.68974 15.3592 3.81347 15.4156 3.94964C15.472 4.08582 15.501 4.23177 15.501 4.37917C15.501 5 14.999 5.50208 14.3792 5.50208Z" fill="#4267B2"/>
<path d="M9.3719 12.5011C11.0995 12.5011 12.5 11.1006 12.5 9.37294C12.5 7.64532 11.0995 6.24481 9.3719 6.24481C7.64428 6.24481 6.24377 7.64532 6.24377 9.37294C6.24377 11.1006 7.64428 12.5011 9.3719 12.5011Z" fill="#4267B2"/>
</svg>
