<svg width="22" height="22" viewBox="0 0 22 22" fill="none" xmlns="http://www.w3.org/2000/svg">
<path d="M10.56 0C4.7278 0 0 4.7278 0 10.56C0 16.3922 4.7278 21.12 10.56 21.12C16.3922 21.12 21.12 16.3922 21.12 10.56C21.12 4.7278 16.3922 0 10.56 0ZM7.975 14.9369H5.8366V8.0553H7.975V14.9369ZM6.8926 7.2105C6.2172 7.2105 5.7805 6.732 5.7805 6.1402C5.7805 5.5363 6.2304 5.0721 6.9201 5.0721C7.6098 5.0721 8.0322 5.5363 8.0454 6.1402C8.0454 6.732 7.6098 7.2105 6.8926 7.2105ZM15.785 14.9369H13.6466V11.1232C13.6466 10.2355 13.3364 9.6327 12.5631 9.6327C11.9724 9.6327 11.6215 10.0408 11.4664 10.4335C11.4092 10.5732 11.3949 10.7712 11.3949 10.9681V14.9358H9.2554V10.2498C9.2554 9.3907 9.2279 8.6724 9.1993 8.0542H11.0572L11.1551 9.0101H11.198C11.4796 8.5613 12.1693 7.8991 13.3232 7.8991C14.7301 7.8991 15.785 8.8418 15.785 10.868V14.9369Z" fill="#0072B1"/>
</svg>
