<svg width="22" height="22" viewBox="0 0 22 22" fill="none" xmlns="http://www.w3.org/2000/svg">
<path d="M10.56 0C4.7278 0 0 4.7278 0 10.56C0 16.3922 4.7278 21.12 10.56 21.12C16.3922 21.12 21.12 16.3922 21.12 10.56C21.12 4.7278 16.3922 0 10.56 0ZM14.8555 8.6504C14.8599 8.7406 14.861 8.8308 14.861 8.9188C14.861 11.6688 12.7699 14.8379 8.9441 14.8379C7.81362 14.8398 6.70666 14.5151 5.7563 13.9029C5.918 13.9227 6.0841 13.9304 6.2524 13.9304C7.227 13.9304 8.1235 13.5993 8.8352 13.0405C8.40149 13.032 7.98124 12.8884 7.63302 12.6297C7.28481 12.371 7.02597 12.0101 6.8926 11.5973C7.20407 11.6565 7.52494 11.6441 7.8309 11.561C7.36015 11.4658 6.93682 11.2107 6.63268 10.839C6.32854 10.4673 6.16232 10.0019 6.1622 9.5216V9.4963C6.4427 9.6514 6.7639 9.746 7.1049 9.757C6.66358 9.46322 6.35116 9.01194 6.23155 8.49545C6.11193 7.97895 6.19416 7.43628 6.4614 6.9784C6.98385 7.6208 7.63539 8.14632 8.37383 8.52094C9.11226 8.89556 9.92115 9.11093 10.7481 9.1531C10.643 8.70684 10.6882 8.23835 10.8768 7.82046C11.0654 7.40256 11.3868 7.05869 11.791 6.84229C12.1952 6.62589 12.6595 6.5491 13.1119 6.62384C13.5642 6.69858 13.9792 6.92068 14.2923 7.2556C14.7578 7.1635 15.2042 6.99276 15.6123 6.7507C15.4572 7.23265 15.1323 7.64189 14.6982 7.9024C15.1105 7.85274 15.5132 7.74189 15.8928 7.5735C15.6139 7.99138 15.2626 8.35608 14.8555 8.6504Z" fill="#202020"/>
</svg>
